<svg width="100" height="100" viewBox="0 0 100 100" fill="none" xmlns="http://www.w3.org/2000/svg">
<g clip-path="url(#clip0_232_16)">
<path d="M0 50C0 29.3837 0 19.0756 5.1643 11.7972C6.98655 9.22898 9.22898 6.98655 11.7972 5.1643C19.0756 0 29.3837 0 50 0C70.6163 0 80.9244 0 88.2028 5.1643C90.771 6.98655 93.0134 9.22898 94.8357 11.7972C100 19.0756 100 29.3837 100 50C100 70.6163 100 80.9244 94.8357 88.2028C93.0134 90.771 90.771 93.0134 88.2028 94.8357C80.9244 100 70.6163 100 50 100C29.3837 100 19.0756 100 11.7972 94.8357C9.22898 93.0134 6.98655 90.771 5.1643 88.2028C0 80.9244 0 70.6163 0 50Z" fill="url(#paint0_linear_232_16)"/>
<path d="M98 50C98 39.6482 97.9969 32.0418 97.3652 26.1084C96.7374 20.2114 95.5068 16.1994 93.2041 12.9541C91.5122 10.5697 89.4303 8.4878 87.0459 6.7959C83.8006 4.49324 79.7886 3.26257 73.8916 2.63477C67.9582 2.00312 60.3518 2 50 2C39.6482 2 32.0418 2.00312 26.1084 2.63477C20.2114 3.26257 16.1994 4.49324 12.9541 6.7959C10.5697 8.4878 8.4878 10.5697 6.7959 12.9541C4.49324 16.1994 3.26257 20.2114 2.63477 26.1084C2.00312 32.0418 2 39.6482 2 50C2 60.3518 2.00312 67.9582 2.63477 73.8916C3.26257 79.7886 4.49324 83.8006 6.7959 87.0459C8.4878 89.4303 10.5697 91.5122 12.9541 93.2041C16.1994 95.5068 20.2114 96.7374 26.1084 97.3652C32.0418 97.9969 39.6482 98 50 98V100C29.7059 100 19.4002 100 12.1406 95.0742L11.7969 94.8359C9.38922 93.1276 7.26797 91.0498 5.51074 88.6807L5.16406 88.2031C-0.00023365 80.9247 0 70.6163 0 50C0 29.3837 -0.00023365 19.0753 5.16406 11.7969C6.98628 9.22873 9.22873 6.98628 11.7969 5.16406C19.0753 -0.00023365 29.3837 0 50 0C70.6163 0 80.9247 -0.00023365 88.2031 5.16406C90.7713 6.98628 93.0137 9.22873 94.8359 11.7969C100 19.0753 100 29.3837 100 50C100 70.6163 100 80.9247 94.8359 88.2031L94.4893 88.6807C92.732 91.0498 90.6108 93.1276 88.2031 94.8359L87.8594 95.0742C80.5998 100 70.2941 100 50 100V98C60.3518 98 67.9582 97.9969 73.8916 97.3652C79.7886 96.7374 83.8006 95.5068 87.0459 93.2041C89.4303 91.5122 91.5122 89.4303 93.2041 87.0459C95.5068 83.8006 96.7374 79.7886 97.3652 73.8916C97.9969 67.9582 98 60.3518 98 50Z" fill="url(#paint1_linear_232_16)"/>
<path d="M79.4492 35.8927C81.085 36.6495 81.9639 38.0167 81.9639 39.4572C81.9639 40.8976 81.085 42.2159 79.4492 42.9972L56.8906 53.3243C54.4492 54.4474 52.4473 54.9357 50.4941 54.9113C48.541 54.9357 46.5146 54.4474 44.0732 53.3243L33.9902 48.7101L48.126 42.1427C48.8828 42.3624 49.7129 42.4845 50.5674 42.4845C53.2529 42.4845 55.8164 41.2394 55.8164 39.4572C55.8164 37.6749 53.2529 36.4542 50.5674 36.4542C47.8574 36.4542 45.2451 37.6993 45.2451 39.4572C45.2451 39.6036 45.2939 39.7501 45.3916 39.8966L30.2793 46.9279L21.5391 42.9972C19.8789 42.2404 19 40.8976 19 39.4572C19 38.0167 19.8789 36.6495 21.5391 35.8927L44.0732 25.59C46.5146 24.4913 48.541 23.9542 50.4941 24.0031C52.4473 23.9542 54.4492 24.4913 56.8906 25.59L79.4492 35.8927ZM33.9414 52.4699L42.6328 56.4738C45.4648 57.7677 48.0527 58.4025 50.4941 58.3781C52.9111 58.4025 55.499 57.7677 58.3311 56.4738L73.4922 49.5157V56.5958C73.4922 63.8712 64.0439 69.7306 50.4941 69.7306C43.7314 69.7306 37.9941 68.2657 33.9414 65.8488V52.4699ZM27.4717 49.5157L30.377 50.8585V62.9435C28.4971 60.9415 27.4717 58.5978 27.4717 56.5958V49.5157ZM28.2773 71.3175C28.2773 69.755 29.083 68.6075 30.377 68.1681V62.9435C31.3047 64.0421 32.5254 64.9943 33.9414 65.8488V68.1681C35.2109 68.6075 35.9922 69.755 35.9922 71.3175V77.2745C35.9922 79.3009 34.6738 80.6193 32.6719 80.6193H31.5977C29.5957 80.6193 28.2773 79.3009 28.2773 77.2745V71.3175Z" fill="white" fill-opacity="0.85"/>
<path d="M32.6719 79.1193V80.6193H31.5977V79.1193H32.6719ZM34.4922 77.2745V71.3175C34.4922 70.304 34.0348 69.7883 33.4512 69.5861L32.4414 69.2365V66.674C32.2502 66.5482 32.0621 66.4195 31.877 66.2882V69.2433L30.8594 69.589C30.236 69.8007 29.7774 70.3296 29.7773 71.3175V77.2745C29.7773 77.956 29.9927 78.3897 30.25 78.6486C30.5069 78.9068 30.9331 79.1193 31.5977 79.1193V80.6193C29.5957 80.6193 28.2773 79.3009 28.2773 77.2745V71.3175C28.2774 69.7551 29.083 68.6075 30.377 68.1681V62.9435C31.3047 64.0421 32.5254 64.9943 33.9414 65.8488V68.1681C35.2109 68.6075 35.9921 69.7551 35.9922 71.3175V77.2745C35.9922 79.3009 34.6738 80.6193 32.6719 80.6193V79.1193C33.3364 79.1193 33.7626 78.9068 34.0195 78.6486C34.2769 78.3897 34.4922 77.956 34.4922 77.2745ZM71.9922 56.5958V51.8546L58.957 57.837L58.9541 57.838C55.9914 59.1916 53.1929 59.899 50.5078 59.8771L50.5088 59.8781C50.5036 59.8781 50.4984 59.877 50.4932 59.8771C50.4884 59.877 50.4832 59.8781 50.4785 59.8781V59.8771C47.7708 59.8986 44.9731 59.1919 42.0098 57.838L42.0049 57.8361L35.4414 54.8116V64.9747C39.166 66.9793 44.342 68.2306 50.4941 68.2306V69.7306C43.7314 69.7306 37.9941 68.2657 33.9414 65.8488V52.4699L42.6328 56.4738C45.4648 57.7677 48.0527 58.4025 50.4941 58.3781C52.9111 58.4025 55.499 57.7677 58.3311 56.4738L73.4922 49.5157V56.5958C73.4922 63.8712 64.0439 69.7306 50.4941 69.7306V68.2306C57.072 68.2306 62.5437 66.8054 66.3164 64.5968C70.1025 62.3804 71.9922 59.5123 71.9922 56.5958ZM30.377 50.8585V62.9435C28.4971 60.9415 27.4717 58.5978 27.4717 56.5958V49.5157L30.377 50.8585ZM80.4639 39.4572C80.4638 38.6798 79.9996 37.8001 78.8193 37.254V37.2531L56.2754 26.9572V26.9581C53.9381 25.9063 52.1703 25.4621 50.5312 25.5031L50.4941 25.504L50.457 25.5031C48.8158 25.462 47.0227 25.9077 44.6885 26.9581L22.1631 37.257L22.1611 37.2579C20.9592 37.806 20.5 38.6843 20.5 39.4572C20.5 40.218 20.9464 41.076 22.1533 41.629L30.2676 45.2775L43.7803 38.9904C43.9836 37.5463 45.1064 36.5495 46.1816 35.9738C47.4251 35.308 49.0069 34.9542 50.5674 34.9542C52.1129 34.9542 53.6791 35.3014 54.9121 35.9679C56.1018 36.6111 57.3163 37.7634 57.3164 39.4572C57.3164 41.1466 56.1075 42.3051 54.9189 42.9552C53.6862 43.6293 52.1179 43.9845 50.5674 43.9845C49.7786 43.9845 49.0053 43.8938 48.2734 43.7277L37.5723 48.6993L44.6973 51.9601L44.7002 51.962C47.0021 53.0209 48.8054 53.4321 50.4756 53.4113H50.5127C52.1805 53.4321 53.9589 53.0222 56.2637 51.962L56.2666 51.9611L78.8027 41.6437C80.0212 41.0617 80.4639 40.2125 80.4639 39.4572ZM81.9639 39.4572C81.9639 40.8976 81.0849 42.2159 79.4492 42.9972L56.8906 53.3243C54.4492 54.4474 52.4473 54.9357 50.4941 54.9113C48.541 54.9357 46.5146 54.4474 44.0732 53.3243L33.9902 48.7101L48.126 42.1427C48.8828 42.3624 49.7129 42.4845 50.5674 42.4845C53.2529 42.4845 55.8164 41.2394 55.8164 39.4572C55.8163 37.675 53.2529 36.4542 50.5674 36.4542C47.8575 36.4542 45.2452 37.6994 45.2451 39.4572C45.2451 39.6036 45.294 39.7502 45.3916 39.8966L30.2793 46.9279L21.5391 42.9972C19.8789 42.2404 19 40.8976 19 39.4572C19.0001 38.0168 19.879 36.6495 21.5391 35.8927L44.0732 25.59C46.5146 24.4913 48.541 23.9542 50.4941 24.0031C52.4473 23.9542 54.4492 24.4913 56.8906 25.59L79.4492 35.8927C81.0849 36.6495 81.9638 38.0168 81.9639 39.4572Z" fill="url(#paint2_linear_232_16)"/>
</g>
<defs>
<linearGradient id="paint0_linear_232_16" x1="50" y1="0" x2="50" y2="100" gradientUnits="userSpaceOnUse">
<stop stop-color="#004791"/>
<stop offset="1" stop-color="#000061"/>
</linearGradient>
<linearGradient id="paint1_linear_232_16" x1="50" y1="0" x2="50" y2="100" gradientUnits="userSpaceOnUse">
<stop stop-color="#014082"/>
<stop offset="1" stop-color="#040354"/>
</linearGradient>
<linearGradient id="paint2_linear_232_16" x1="50.4819" y1="24" x2="50.4819" y2="80.6193" gradientUnits="userSpaceOnUse">
<stop stop-color="#F7F9FB"/>
<stop offset="1" stop-color="#ECEDF4"/>
</linearGradient>
<clipPath id="clip0_232_16">
<rect width="100" height="100" fill="white"/>
</clipPath>
</defs>
</svg>
